<svg xmlns="http://www.w3.org/2000/svg" width="640" height="640" viewBox="0 0 640 640" fill="none">
  <rect width="640" height="640" rx="36" fill="#F8FAFC"/>
  <rect x="40" y="40" width="560" height="560" rx="28" fill="white" stroke="#CBD5E1" stroke-width="2"/>
  <rect x="84" y="84" width="472" height="96" rx="18" fill="#EFF6FF"/>
  <circle cx="140" cy="132" r="24" fill="#60A5FA"/>
  <circle cx="195" cy="136" r="18" fill="#93C5FD"/>
  <path d="M103 172C103 154.327 117.327 140 135 140H145C162.673 140 177 154.327 177 172V176H103V172Z" fill="#38BDF8"/>
  <path d="M167 176C167 162.745 177.745 152 191 152H199C212.255 152 223 162.745 223 176V176H167Z" fill="#7DD3FC"/>
  <text x="250" y="126" fill="#0F172A" font-family="Microsoft YaHei, Arial, sans-serif" font-size="36" font-weight="700">谷歌邮箱</text>
  <text x="250" y="164" fill="#64748B" font-family="Microsoft YaHei, Arial, sans-serif" font-size="24">QQ群：1093969322</text>
  <rect x="112" y="220" width="416" height="280" rx="24" fill="#F8FAFC" stroke="#E2E8F0" stroke-width="2" stroke-dasharray="10 10"/>
  <circle cx="180" cy="290" r="42" fill="#67E8F9"/>
  <circle cx="460" cy="290" r="42" fill="#93C5FD"/>
  <circle cx="180" cy="430" r="42" fill="#7DD3FC"/>
  <rect x="272" y="322" width="96" height="96" rx="28" fill="#93C5FD"/>
  <text x="320" y="380" text-anchor="middle" fill="white" font-family="Microsoft YaHei, Arial, sans-serif" font-size="28" font-weight="700">QQ</text>
  <text x="320" y="535" text-anchor="middle" fill="#64748B" font-family="Microsoft YaHei, Arial, sans-serif" font-size="22">请把真二维码上传为</text>
  <text x="320" y="568" text-anchor="middle" fill="#0F172A" font-family="Microsoft YaHei, Arial, sans-serif" font-size="22" font-weight="700">static/images/qq-group.png</text>
</svg>
